<svg width="512" height="512" viewBox="0 0 512 512" fill="none" xmlns="http://www.w3.org/2000/svg">
<path d="M256 10.24C120.269 10.24 10.24 120.269 10.24 256C10.24 391.731 120.269 501.76 256 501.76C391.731 501.76 501.76 391.731 501.76 256C501.76 120.269 391.731 10.24 256 10.24ZM195.84 357.862H146.074V197.709H195.84V357.862ZM170.65 178.048C154.931 178.048 144.768 166.912 144.768 153.139C144.768 139.085 155.238 128.282 171.29 128.282C187.341 128.282 197.171 139.085 197.478 153.139C197.478 166.912 187.341 178.048 170.65 178.048ZM377.6 357.862H327.834V269.107C327.834 248.448 320.614 234.419 302.618 234.419C288.87 234.419 280.704 243.917 277.094 253.056C275.763 256.307 275.43 260.915 275.43 265.498V357.837H225.638V248.781C225.638 228.787 224.998 212.07 224.333 197.683H267.571L269.85 219.93H270.848C277.402 209.485 293.453 194.074 320.307 194.074C353.05 194.074 377.6 216.013 377.6 263.168V357.862Z" fill="#333333"/>
</svg>
